<svg width="942" height="946" viewBox="0 0 942 946" fill="none" xmlns="http://www.w3.org/2000/svg">
<path d="M173.205 369.282C173.205 338.49 206.538 319.245 233.205 334.641L413.205 438.564C439.872 453.96 439.872 492.45 413.205 507.846L233.205 611.769C206.538 627.165 173.205 607.92 173.205 577.128L173.205 369.282Z" fill="#BF6633"/>
<path d="M602 507.641C575.333 492.245 575.333 453.755 602 438.359L782 334.436C808.667 319.04 842 338.285 842 369.077V576.923C842 607.715 808.667 626.96 782 611.564L602 507.641Z" fill="#BF6633"/>
<path d="M524.205 169.282C524.205 138.49 557.538 119.245 584.205 134.641L764.205 238.564C790.872 253.96 790.872 292.45 764.205 307.846L584.205 411.769C557.538 427.165 524.205 407.92 524.205 377.128L524.205 169.282Z" fill="#BF6633"/>
<path d="M250 307.641C223.333 292.245 223.333 253.755 250 238.359L430 134.436C456.667 119.04 490 138.285 490 169.077V376.923C490 407.715 456.667 426.96 430 411.564L250 307.641Z" fill="#BF6633"/>
<path d="M523.205 568.282C523.205 537.49 556.538 518.245 583.205 533.641L763.205 637.564C789.872 652.96 789.872 691.45 763.205 706.846L583.205 810.769C556.538 826.165 523.205 806.92 523.205 776.128L523.205 568.282Z" fill="#BF6633"/>
<path d="M249 706.641C222.333 691.245 222.333 652.755 249 637.359L429 533.436C455.667 518.04 489 537.285 489 568.077V775.923C489 806.715 455.667 825.96 429 810.564L249 706.641Z" fill="#BF6633"/>
</svg>
